<svg xmlns="http://www.w3.org/2000/svg" width="1529.897" height="286.78" viewBox="0 0 1529.897 286.78">
  <g id="Group_535" data-name="Group 535" transform="translate(-194.723 -76.042)">
    <path id="Path_139" data-name="Path 139" d="M308.206,94.063a21.765,21.765,0,0,0-33.123-27.611A30.8,30.8,0,0,0,232.105,56.7,52.377,52.377,0,0,0,135.515,34.9,30.79,30.79,0,0,0,94.549,76.79c-1.162-.1-2.345-.149-3.535-.149a41.235,41.235,0,1,0,0,82.47H300.9a32.934,32.934,0,0,0,7.3-65.048Z" transform="translate(144.945 156.188)" fill="#a6daff" opacity="0.397"/>
    <path id="Path_150" data-name="Path 150" d="M343.7,143.125a16.945,16.945,0,0,0-8.742,2.417,29.536,29.536,0,0,0-36.51-24.947,18.5,18.5,0,0,0-28.913-11.227,39.75,39.75,0,0,0-38.178-28.72,40.225,40.225,0,0,0-8.052.817A63.564,63.564,0,0,0,102.892,121a33.48,33.48,0,1,0-10.427,60.842,13.056,13.056,0,0,0-1.154,3.765,12.846,12.846,0,0,0,20.719,11.909,38.088,38.088,0,0,0,56.875,16.423,31.258,31.258,0,0,0,60.867,7.588A49.158,49.158,0,0,0,308.6,189.784c.059-.421.1-.834.152-1.255a16.991,16.991,0,0,0,30.775-11.917,17,17,0,1,0,4.177-33.487Z" transform="translate(707.217 33.663)" fill="#a6daff" opacity="0.397"/>
    <path id="Path_151" data-name="Path 151" d="M393.853,166.151a26.867,26.867,0,0,0-20.36-47.506,35.022,35.022,0,0,0-50.061-39.489A67.926,67.926,0,0,0,199.1,87.393a43.142,43.142,0,0,0-71.142,32.836,44.181,44.181,0,0,0,.36,5.517,26.419,26.419,0,1,0,4.349,50.946,27.049,27.049,0,0,0,44.912,15.462,45.889,45.889,0,0,0,76.353,18.314,27.037,27.037,0,0,0,43.776,4.451,45.876,45.876,0,0,0,79.1-29.176,13.436,13.436,0,1,0,17.037-19.592Z" transform="translate(1320.861 133.594)" fill="#a6daff" opacity="0.397"/>
  </g>
</svg>
